<svg class="main-svg" xmlns="http://www.w3.org/2000/svg" xmlns:xlink="http://www.w3.org/1999/xlink" width="3900" height="2100" style="" viewBox="0 0 1300 700"><rect x="0" y="0" width="1300" height="700" style="fill: rgb(255, 255, 255); fill-opacity: 1;"/><defs id="defs-abffe3"><g class="clips"><clipPath id="clipabffe3xyplot" class="plotclip"><rect width="1020" height="510"/></clipPath><clipPath class="axesclip" id="clipabffe3x"><rect x="110" y="0" width="1020" height="700"/></clipPath><clipPath class="axesclip" id="clipabffe3y"><rect x="0" y="110" width="1300" height="510"/></clipPath><clipPath class="axesclip" id="clipabffe3xy"><rect x="110" y="110" width="1020" height="510"/></clipPath></g><g class="gradients"/><g class="patterns"/></defs><g class="bglayer"/><g class="layer-below"><g class="imagelayer"/><g class="shapelayer"/></g><g class="cartesianlayer"><g class="subplot xy"><g class="layer-subplot"><g class="shapelayer"><g class="shape-group" data-index="0" clip-path="url(#clipabffe3xy)"><path data-index="0" fill-rule="evenodd" d="M179.15,620H1112.71V328.57H179.15Z" style="opacity: 1; stroke: rgb(0, 0, 0); stroke-opacity: 0; fill: rgb(46, 95, 158); fill-opacity: 0.06; stroke-width: 0px;"/></g><g class="shape-group" data-index="1" clip-path="url(#clipabffe3xy)"><path data-index="1" fill-rule="evenodd" d="M179.15,328.57H1112.71V110H179.15Z" style="opacity: 1; stroke: rgb(0, 0, 0); stroke-opacity: 0; fill: rgb(26, 51, 88); fill-opacity: 0.08; stroke-width: 0px;"/></g></g><g class="imagelayer"/></g><g class="minor-gridlayer"><g class="x"/><g class="y"/></g><g class="gridlayer"><g class="x"><path class="xgrid crisp" transform="translate(429.83,0)" d="M0,110v510" style="stroke: rgb(238, 238, 238); stroke-opacity: 1; stroke-width: 1px;"/><path class="xgrid crisp" transform="translate(645.93,0)" d="M0,110v510" style="stroke: rgb(238, 238, 238); stroke-opacity: 1; stroke-width: 1px;"/><path class="xgrid crisp" transform="translate(862.03,0)" d="M0,110v510" style="stroke: rgb(238, 238, 238); stroke-opacity: 1; stroke-width: 1px;"/><path class="xgrid crisp" transform="translate(1078.1399999999999,0)" d="M0,110v510" style="stroke: rgb(238, 238, 238); stroke-opacity: 1; stroke-width: 1px;"/></g><g class="y"/></g><g class="zerolinelayer"><path class="xzl zl crisp" transform="translate(213.73000000000002,0)" d="M0,110v510" style="stroke: rgb(255, 255, 255); stroke-opacity: 1; stroke-width: 2px;"/></g><g class="layer-between"><g class="shapelayer"/><g class="imagelayer"/></g><path class="xlines-below"/><path class="ylines-below"/><g class="overlines-below"/><g class="xaxislayer-below"/><g class="yaxislayer-below"/><g class="overaxes-below"/><g class="overplot"><g class="xy" transform="translate(110,110)" clip-path="url(#clipabffe3xyplot)"><g class="scatterlayer mlayer"><g class="trace scatter tracece16ca" style="stroke-miterlimit: 2; opacity: 1;"><g class="fills"/><g class="errorbars"/><g class="lines"/><g class="points"><path class="point" transform="translate(659.96,182.14)" d="M11.05,0L0,11.05L-11.05,0L0,-11.05Z" style="opacity: 1; stroke-width: 2px; fill: rgb(33, 150, 243); fill-opacity: 1; stroke: rgb(255, 255, 255); stroke-opacity: 1;"/></g><g class="text"/></g><g class="trace scatter trace894248" style="stroke-miterlimit: 2; opacity: 1;"><g class="fills"/><g class="errorbars"/><g class="lines"/><g class="points"><path class="point" transform="translate(740.66,109.29)" d="M8.5,0A8.5,8.5 0 1,1 0,-8.5A8.5,8.5 0 0,1 8.5,0Z" style="opacity: 1; stroke-width: 2px; fill: rgb(244, 67, 54); fill-opacity: 1; stroke: rgb(255, 255, 255); stroke-opacity: 1;"/><path class="point" transform="translate(664.1,36.43)" d="M8.5,0A8.5,8.5 0 1,1 0,-8.5A8.5,8.5 0 0,1 8.5,0Z" style="opacity: 1; stroke-width: 2px; fill: rgb(244, 67, 54); fill-opacity: 1; stroke: rgb(255, 255, 255); stroke-opacity: 1;"/><path class="point" transform="translate(354.03,255)" d="M11.05,0L0,11.05L-11.05,0L0,-11.05Z" style="opacity: 1; stroke-width: 2px; fill: rgb(244, 67, 54); fill-opacity: 1; stroke: rgb(255, 255, 255); stroke-opacity: 1;"/><path class="point" transform="translate(342.19,473.57)" d="M11.05,0L0,11.05L-11.05,0L0,-11.05Z" style="opacity: 1; stroke-width: 2px; fill: rgb(244, 67, 54); fill-opacity: 1; stroke: rgb(255, 255, 255); stroke-opacity: 1;"/></g><g class="text"/></g><g class="trace scatter trace3401e2" style="stroke-miterlimit: 2; opacity: 1;"><g class="fills"/><g class="errorbars"/><g class="lines"/><g class="points"><path class="point" transform="translate(532.68,109.29)" d="M11.05,0L0,11.05L-11.05,0L0,-11.05Z" style="opacity: 1; stroke-width: 2px; fill: rgb(255, 152, 0); fill-opacity: 1; stroke: rgb(255, 255, 255); stroke-opacity: 1;"/><path class="point" transform="translate(878.71,36.43)" d="M8.5,0A8.5,8.5 0 1,1 0,-8.5A8.5,8.5 0 0,1 8.5,0Z" style="opacity: 1; stroke-width: 2px; fill: rgb(255, 152, 0); fill-opacity: 1; stroke: rgb(255, 255, 255); stroke-opacity: 1;"/><path class="point" transform="translate(339.48,255)" d="M11.05,0L0,11.05L-11.05,0L0,-11.05Z" style="opacity: 1; stroke-width: 2px; fill: rgb(255, 152, 0); fill-opacity: 1; stroke: rgb(255, 255, 255); stroke-opacity: 1;"/><path class="point" transform="translate(173.58,255)" d="M8.5,0A8.5,8.5 0 1,1 0,-8.5A8.5,8.5 0 0,1 8.5,0Z" style="opacity: 1; stroke-width: 2px; fill: rgb(255, 152, 0); fill-opacity: 1; stroke: rgb(255, 255, 255); stroke-opacity: 1;"/><path class="point" transform="translate(205.71,327.86)" d="M8.5,0A8.5,8.5 0 1,1 0,-8.5A8.5,8.5 0 0,1 8.5,0Z" style="opacity: 1; stroke-width: 2px; fill: rgb(255, 152, 0); fill-opacity: 1; stroke: rgb(255, 255, 255); stroke-opacity: 1;"/></g><g class="text"/></g><g class="trace scatter trace57be73" style="stroke-miterlimit: 2; opacity: 1;"><g class="fills"/><g class="errorbars"/><g class="lines"/><g class="points"><path class="point" transform="translate(111.25,182.14)" d="M8.5,0A8.5,8.5 0 1,1 0,-8.5A8.5,8.5 0 0,1 8.5,0Z" style="opacity: 1; stroke-width: 2px; fill: rgb(96, 125, 139); fill-opacity: 1; stroke: rgb(255, 255, 255); stroke-opacity: 1;"/><path class="point" transform="translate(600.3,400.71)" d="M8.5,8.5H-8.5V-8.5H8.5Z" style="opacity: 1; stroke-width: 2px; fill: rgb(96, 125, 139); fill-opacity: 1; stroke: rgb(255, 255, 255); stroke-opacity: 1;"/></g><g class="text"/></g></g></g></g><g class="zerolinelayer-above"/><path class="xlines-above crisp" d="M0,0" style="fill: none;"/><path class="ylines-above crisp" d="M0,0" style="fill: none;"/><g class="overlines-above"/><g class="xaxislayer-above"><g class="xtick"><text text-anchor="middle" x="0" y="633" transform="translate(213.73000000000002,0)" style="font-family: Arial; font-size: 12px; fill: rgb(51, 51, 51); fill-opacity: 1; white-space: pre;"><tspan class="line" dy="0em" x="0" y="633">N-term</tspan><tspan class="line" dy="1.3em" x="0" y="633">0</tspan></text></g><g class="xtick"><text text-anchor="middle" x="0" y="633" style="font-family: Arial; font-size: 12px; fill: rgb(51, 51, 51); fill-opacity: 1; white-space: pre;" transform="translate(429.83,0)">0.25</text></g><g class="xtick"><text text-anchor="middle" x="0" y="633" style="font-family: Arial; font-size: 12px; fill: rgb(51, 51, 51); fill-opacity: 1; white-space: pre;" transform="translate(645.93,0)">0.50</text></g><g class="xtick"><text text-anchor="middle" x="0" y="633" style="font-family: Arial; font-size: 12px; fill: rgb(51, 51, 51); fill-opacity: 1; white-space: pre;" transform="translate(862.03,0)">0.75</text></g><g class="xtick"><text text-anchor="middle" x="0" y="633" style="font-family: Arial; font-size: 12px; fill: rgb(51, 51, 51); fill-opacity: 1; white-space: pre;" transform="translate(1078.1399999999999,0)"><tspan class="line" dy="0em" x="0" y="633">C-term</tspan><tspan class="line" dy="1.3em" x="0" y="633">1.0</tspan></text></g></g><g class="yaxislayer-above"><g class="ytick"><text text-anchor="end" x="109" y="4.199999999999999" transform="translate(0,583.5699999999999)" style="font-family: Arial; font-size: 12px; fill: rgb(51, 51, 51); fill-opacity: 1; white-space: pre;">RPL26</text></g><g class="ytick"><text text-anchor="end" x="109" y="4.199999999999999" transform="translate(0,510.71)" style="font-family: Arial; font-size: 12px; fill: rgb(51, 51, 51); fill-opacity: 1; white-space: pre;">RPL18</text></g><g class="ytick"><text text-anchor="end" x="109" y="4.199999999999999" transform="translate(0,437.86)" style="font-family: Arial; font-size: 12px; fill: rgb(51, 51, 51); fill-opacity: 1; white-space: pre;">RPL11</text></g><g class="ytick"><text text-anchor="end" x="109" y="4.199999999999999" transform="translate(0,365)" style="font-family: Arial; font-size: 12px; fill: rgb(51, 51, 51); fill-opacity: 1; white-space: pre;">RPL5</text></g><g class="ytick"><text text-anchor="end" x="109" y="4.199999999999999" transform="translate(0,292.14)" style="font-family: Arial; font-size: 12px; fill: rgb(51, 51, 51); fill-opacity: 1; white-space: pre;">RPS26</text></g><g class="ytick"><text text-anchor="end" x="109" y="4.199999999999999" transform="translate(0,219.29000000000002)" style="font-family: Arial; font-size: 12px; fill: rgb(51, 51, 51); fill-opacity: 1; white-space: pre;">RPS24</text></g><g class="ytick"><text text-anchor="end" x="109" y="4.199999999999999" transform="translate(0,146.43)" style="font-family: Arial; font-size: 12px; fill: rgb(51, 51, 51); fill-opacity: 1; white-space: pre;">RPS19</text></g></g><g class="overaxes-above"/></g></g><g class="polarlayer"/><g class="smithlayer"/><g class="ternarylayer"/><g class="geolayer"/><g class="funnelarealayer"/><g class="pielayer"/><g class="iciclelayer"/><g class="treemaplayer"/><g class="sunburstlayer"/><g class="glimages"/><defs id="topdefs-abffe3"><g class="clips"/><clipPath id="legendabffe3"><rect width="98" height="103" x="1" y="1"/></clipPath></defs><g class="layer-above"><g class="imagelayer"/><g class="shapelayer"><g class="shape-group" data-index="2" clip-path="url(#clipabffe3xy)"><path data-index="2" fill-rule="evenodd" d="M179.15,328.57L1112.71,328.57" style="opacity: 1; stroke: rgb(170, 170, 170); stroke-opacity: 1; fill: rgb(0, 0, 0); fill-opacity: 0; stroke-dasharray: 3px, 3px; stroke-width: 1.5px;"/></g></g></g><g class="infolayer"><g class="legend" pointer-events="all" transform="translate(1140.2,110)"><rect class="bg" shape-rendering="crispEdges" style="stroke: rgb(204, 204, 204); stroke-opacity: 1; fill: rgb(255, 255, 255); fill-opacity: 0.9; stroke-width: 1px;" width="99" height="104" x="0.5" y="0.5"/><g class="scrollbox" transform="" clip-path="url(#legendabffe3)"><text class="legendtitletext" text-anchor="start" x="3" y="17.900000000000002" style="font-family: Arial; font-size: 13px; fill: rgb(51, 51, 51); fill-opacity: 1; white-space: pre; opacity: 1;"><tspan style="font-weight:bold">Variant Type</tspan></text><g class="groups"><g class="traces" transform="translate(1,32.400000000000006)" style="opacity: 1;"><text class="legendtext" text-anchor="start" x="40" y="4.29" style="font-family: Arial; font-size: 11px; fill: rgb(51, 51, 51); fill-opacity: 1; white-space: pre;">Missense</text><g class="layers" style="opacity: 1;"><g class="legendfill"/><g class="legendlines"/><g class="legendsymbols"><g class="legendpoints"><path class="scatterpts" transform="translate(20,0)" d="M10.4,0L0,10.4L-10.4,0L0,-10.4Z" style="opacity: 1; stroke-width: 2px; fill: rgb(33, 150, 243); fill-opacity: 1; stroke: rgb(255, 255, 255); stroke-opacity: 1;"/></g></g></g><rect class="legendtoggle" x="0" y="-9.5" width="92.8984375" height="19" style="fill: rgb(0, 0, 0); fill-opacity: 0;"/></g><g class="traces" transform="translate(1,51.400000000000006)" style="opacity: 1;"><text class="legendtext" text-anchor="start" x="40" y="4.29" style="font-family: Arial; font-size: 11px; fill: rgb(51, 51, 51); fill-opacity: 1; white-space: pre;">Nonsense</text><g class="layers" style="opacity: 1;"><g class="legendfill"/><g class="legendlines"/><g class="legendsymbols"><g class="legendpoints"><path class="scatterpts" transform="translate(20,0)" d="M8,0A8,8 0 1,1 0,-8A8,8 0 0,1 8,0Z" style="opacity: 1; stroke-width: 2px; fill: rgb(244, 67, 54); fill-opacity: 1; stroke: rgb(255, 255, 255); stroke-opacity: 1;"/></g></g></g><rect class="legendtoggle" x="0" y="-9.5" width="92.8984375" height="19" style="fill: rgb(0, 0, 0); fill-opacity: 0;"/></g><g class="traces" transform="translate(1,70.4)" style="opacity: 1;"><text class="legendtext" text-anchor="start" x="40" y="4.29" style="font-family: Arial; font-size: 11px; fill: rgb(51, 51, 51); fill-opacity: 1; white-space: pre;">Frameshift</text><g class="layers" style="opacity: 1;"><g class="legendfill"/><g class="legendlines"/><g class="legendsymbols"><g class="legendpoints"><path class="scatterpts" transform="translate(20,0)" d="M10.4,0L0,10.4L-10.4,0L0,-10.4Z" style="opacity: 1; stroke-width: 2px; fill: rgb(255, 152, 0); fill-opacity: 1; stroke: rgb(255, 255, 255); stroke-opacity: 1;"/></g></g></g><rect class="legendtoggle" x="0" y="-9.5" width="92.8984375" height="19" style="fill: rgb(0, 0, 0); fill-opacity: 0;"/></g><g class="traces" transform="translate(1,89.4)" style="opacity: 1;"><text class="legendtext" text-anchor="start" x="40" y="4.29" style="font-family: Arial; font-size: 11px; fill: rgb(51, 51, 51); fill-opacity: 1; white-space: pre;">Other</text><g class="layers" style="opacity: 1;"><g class="legendfill"/><g class="legendlines"/><g class="legendsymbols"><g class="legendpoints"><path class="scatterpts" transform="translate(20,0)" d="M8,0A8,8 0 1,1 0,-8A8,8 0 0,1 8,0Z" style="opacity: 1; stroke-width: 2px; fill: rgb(96, 125, 139); fill-opacity: 1; stroke: rgb(255, 255, 255); stroke-opacity: 1;"/></g></g></g><rect class="legendtoggle" x="0" y="-9.5" width="92.8984375" height="19" style="fill: rgb(0, 0, 0); fill-opacity: 0;"/></g></g></g><rect class="scrollbar" rx="20" ry="3" width="0" height="0" style="fill: rgb(128, 139, 164); fill-opacity: 1;" x="0" y="0"/></g><g class="g-gtitle"><text class="gtitle" x="650" y="55" text-anchor="middle" dy="0em" style="opacity: 1; font-family: Arial; font-size: 15px; fill: rgb(26, 51, 88); fill-opacity: 1; white-space: pre;"><tspan class="line" dy="0em" x="650" y="55"><tspan style="font-weight:bold">40S vs 60S Ribosomal Subunit Variants — DBA Cohort</tspan></tspan><tspan class="line" dy="1.3em" x="650" y="55">​<tspan style="font-size:70%" dy="-0.6em">Each dot = 1 variant · Color = molecular consequence · Symbol: ● Pathogenic  ◆ Likely Pathogenic  ■ VUS</tspan><tspan dy="0.42em">​</tspan></tspan></text></g><g class="g-xtitle"><text class="xtitle" x="620" y="675.899609375" text-anchor="middle" style="opacity: 1; font-family: Arial; font-size: 14px; fill: rgb(51, 51, 51); fill-opacity: 1; white-space: pre;">Normalized protein position  (N-terminus → C-terminus)</text></g><g class="g-ytitle"><text class="ytitle" transform="rotate(-90,51.56875,365)" x="51.56875" y="365" text-anchor="middle" style="opacity: 1; font-family: Arial; font-size: 14px; fill: rgb(51, 51, 51); fill-opacity: 1; white-space: pre;">Gene</text></g><g class="annotation" data-index="0" style="opacity: 1;"><g class="annotation-text-g" transform="rotate(0,121.93,219.29000000000002)"><g class="cursor-pointer" transform="translate(108,210)"><rect class="bg" x="0.5" y="0.5" width="27" height="18" style="stroke-width: 1px; stroke: rgb(0, 0, 0); stroke-opacity: 0; fill: rgb(0, 0, 0); fill-opacity: 0;"/><text class="annotation-text" text-anchor="middle" x="14.5703125" y="14" style="font-family: Arial; font-size: 13px; fill: rgb(26, 51, 88); fill-opacity: 1; white-space: pre;"><tspan style="font-weight:bold">40S</tspan></text></g></g></g><g class="annotation" data-index="1" style="opacity: 1;"><g class="annotation-text-g" transform="rotate(0,122.43,474.29)"><g class="cursor-pointer" transform="translate(109,465)"><rect class="bg" x="0.5" y="0.5" width="26" height="18" style="stroke-width: 1px; stroke: rgb(0, 0, 0); stroke-opacity: 0; fill: rgb(0, 0, 0); fill-opacity: 0;"/><text class="annotation-text" text-anchor="middle" x="13.5703125" y="14" style="font-family: Arial; font-size: 13px; fill: rgb(46, 95, 158); fill-opacity: 1; white-space: pre;"><tspan style="font-weight:bold">60S</tspan></text></g></g></g></g></svg>